<mxfile host="Electron" agent="Mozilla/5.0 (X11; Linux x86_64) AppleWebKit/537.36 (KHTML, like Gecko) draw.io/26.0.9 Chrome/128.0.6613.186 Electron/32.2.5 Safari/537.36" version="26.0.9">
  <diagram name="Page-1" id="QvG4dtfnTvjtI5_szlY5">
    <mxGraphModel dx="821" dy="578" grid="1" gridSize="10" guides="1" tooltips="1" connect="1" arrows="1" fold="1" page="1" pageScale="1" pageWidth="850" pageHeight="1100" math="0" shadow="0">
      <root>
        <mxCell id="0" />
        <mxCell id="1" parent="0" />
        <mxCell id="zfiHKtJej-UQ12oJ4Emu-4" value="" style="rounded=1;whiteSpace=wrap;html=1;fillColor=#f5f5f5;fontColor=#333333;strokeColor=#666666;" vertex="1" parent="1">
          <mxGeometry x="220" y="90" width="440" height="140" as="geometry" />
        </mxCell>
        <mxCell id="zfiHKtJej-UQ12oJ4Emu-1" value="Operation&lt;div&gt;(Addition)&lt;/div&gt;" style="rounded=1;whiteSpace=wrap;html=1;fillColor=#dae8fc;strokeColor=#6c8ebf;" vertex="1" parent="1">
          <mxGeometry x="240" y="120" width="80" height="80" as="geometry" />
        </mxCell>
        <mxCell id="zfiHKtJej-UQ12oJ4Emu-2" value="Rounding" style="rounded=1;whiteSpace=wrap;html=1;fillColor=#dae8fc;strokeColor=#6c8ebf;" vertex="1" parent="1">
          <mxGeometry x="400" y="120" width="80" height="80" as="geometry" />
        </mxCell>
        <mxCell id="zfiHKtJej-UQ12oJ4Emu-3" value="Saturation" style="rounded=1;whiteSpace=wrap;html=1;fillColor=#dae8fc;strokeColor=#6c8ebf;" vertex="1" parent="1">
          <mxGeometry x="560" y="120" width="80" height="80" as="geometry" />
        </mxCell>
        <mxCell id="zfiHKtJej-UQ12oJ4Emu-5" value="" style="endArrow=classic;html=1;rounded=0;" edge="1" parent="1">
          <mxGeometry width="50" height="50" relative="1" as="geometry">
            <mxPoint x="180" y="140" as="sourcePoint" />
            <mxPoint x="240" y="140" as="targetPoint" />
          </mxGeometry>
        </mxCell>
        <mxCell id="zfiHKtJej-UQ12oJ4Emu-6" value="" style="endArrow=classic;html=1;rounded=0;" edge="1" parent="1">
          <mxGeometry width="50" height="50" relative="1" as="geometry">
            <mxPoint x="180" y="180" as="sourcePoint" />
            <mxPoint x="240" y="180" as="targetPoint" />
          </mxGeometry>
        </mxCell>
        <mxCell id="zfiHKtJej-UQ12oJ4Emu-7" value="" style="endArrow=classic;html=1;rounded=0;entryX=0;entryY=0.5;entryDx=0;entryDy=0;" edge="1" parent="1" target="zfiHKtJej-UQ12oJ4Emu-2">
          <mxGeometry width="50" height="50" relative="1" as="geometry">
            <mxPoint x="320" y="159.71" as="sourcePoint" />
            <mxPoint x="380" y="159.71" as="targetPoint" />
          </mxGeometry>
        </mxCell>
        <mxCell id="zfiHKtJej-UQ12oJ4Emu-8" value="" style="endArrow=classic;html=1;rounded=0;entryX=0;entryY=0.5;entryDx=0;entryDy=0;" edge="1" parent="1" target="zfiHKtJej-UQ12oJ4Emu-3">
          <mxGeometry width="50" height="50" relative="1" as="geometry">
            <mxPoint x="480" y="159.71" as="sourcePoint" />
            <mxPoint x="540" y="159.71" as="targetPoint" />
          </mxGeometry>
        </mxCell>
        <mxCell id="zfiHKtJej-UQ12oJ4Emu-10" value="" style="endArrow=classic;html=1;rounded=0;" edge="1" parent="1">
          <mxGeometry width="50" height="50" relative="1" as="geometry">
            <mxPoint x="640" y="159.71" as="sourcePoint" />
            <mxPoint x="700" y="159.71" as="targetPoint" />
          </mxGeometry>
        </mxCell>
        <mxCell id="zfiHKtJej-UQ12oJ4Emu-11" value="Input A" style="text;strokeColor=none;fillColor=none;align=right;verticalAlign=middle;spacingLeft=4;spacingRight=4;overflow=hidden;points=[[0,0.5],[1,0.5]];portConstraint=eastwest;rotatable=0;whiteSpace=wrap;html=1;" vertex="1" parent="1">
          <mxGeometry x="100" y="130" width="80" height="20" as="geometry" />
        </mxCell>
        <mxCell id="zfiHKtJej-UQ12oJ4Emu-12" value="Input B" style="text;strokeColor=none;fillColor=none;align=right;verticalAlign=middle;spacingLeft=4;spacingRight=4;overflow=hidden;points=[[0,0.5],[1,0.5]];portConstraint=eastwest;rotatable=0;whiteSpace=wrap;html=1;" vertex="1" parent="1">
          <mxGeometry x="100" y="170" width="80" height="20" as="geometry" />
        </mxCell>
        <mxCell id="zfiHKtJej-UQ12oJ4Emu-13" value="Result" style="text;strokeColor=none;fillColor=none;align=left;verticalAlign=middle;spacingLeft=4;spacingRight=4;overflow=hidden;points=[[0,0.5],[1,0.5]];portConstraint=eastwest;rotatable=0;whiteSpace=wrap;html=1;" vertex="1" parent="1">
          <mxGeometry x="700" y="150" width="80" height="20" as="geometry" />
        </mxCell>
        <mxCell id="zfiHKtJej-UQ12oJ4Emu-14" value="olo_fix_add" style="text;strokeColor=none;fillColor=none;align=left;verticalAlign=middle;spacingLeft=4;spacingRight=4;overflow=hidden;points=[[0,0.5],[1,0.5]];portConstraint=eastwest;rotatable=0;whiteSpace=wrap;html=1;" vertex="1" parent="1">
          <mxGeometry x="240" y="70" width="80" height="20" as="geometry" />
        </mxCell>
        <mxCell id="zfiHKtJej-UQ12oJ4Emu-16" value="[1,2,5]" style="text;strokeColor=none;fillColor=none;align=center;verticalAlign=middle;spacingLeft=4;spacingRight=4;overflow=hidden;points=[[0,0.5],[1,0.5]];portConstraint=eastwest;rotatable=0;whiteSpace=wrap;html=1;fontSize=10;" vertex="1" parent="1">
          <mxGeometry x="180" y="120" width="40" height="20" as="geometry" />
        </mxCell>
        <mxCell id="zfiHKtJej-UQ12oJ4Emu-18" value="[1,3,6]" style="text;strokeColor=none;fillColor=none;align=center;verticalAlign=middle;spacingLeft=4;spacingRight=4;overflow=hidden;points=[[0,0.5],[1,0.5]];portConstraint=eastwest;rotatable=0;whiteSpace=wrap;html=1;fontSize=10;" vertex="1" parent="1">
          <mxGeometry x="180" y="160" width="40" height="20" as="geometry" />
        </mxCell>
        <mxCell id="zfiHKtJej-UQ12oJ4Emu-19" value="[1,4,6]" style="text;strokeColor=none;fillColor=none;align=center;verticalAlign=middle;spacingLeft=4;spacingRight=4;overflow=hidden;points=[[0,0.5],[1,0.5]];portConstraint=eastwest;rotatable=0;whiteSpace=wrap;html=1;fontSize=10;" vertex="1" parent="1">
          <mxGeometry x="350" y="140" width="40" height="20" as="geometry" />
        </mxCell>
        <mxCell id="zfiHKtJej-UQ12oJ4Emu-20" value="[1,5,4]" style="text;strokeColor=none;fillColor=none;align=center;verticalAlign=middle;spacingLeft=4;spacingRight=4;overflow=hidden;points=[[0,0.5],[1,0.5]];portConstraint=eastwest;rotatable=0;whiteSpace=wrap;html=1;fontSize=10;" vertex="1" parent="1">
          <mxGeometry x="510" y="140" width="40" height="20" as="geometry" />
        </mxCell>
        <mxCell id="zfiHKtJej-UQ12oJ4Emu-21" value="[1,2,4]" style="text;strokeColor=none;fillColor=none;align=center;verticalAlign=middle;spacingLeft=4;spacingRight=4;overflow=hidden;points=[[0,0.5],[1,0.5]];portConstraint=eastwest;rotatable=0;whiteSpace=wrap;html=1;fontSize=10;" vertex="1" parent="1">
          <mxGeometry x="660" y="140" width="40" height="20" as="geometry" />
        </mxCell>
        <mxCell id="zfiHKtJej-UQ12oJ4Emu-23" value="" style="endArrow=none;html=1;rounded=0;strokeWidth=4;entryX=0;entryY=1;entryDx=0;entryDy=0;" edge="1" parent="1">
          <mxGeometry width="50" height="50" relative="1" as="geometry">
            <mxPoint x="333" y="175" as="sourcePoint" />
            <mxPoint x="333" y="145" as="targetPoint" />
          </mxGeometry>
        </mxCell>
        <mxCell id="zfiHKtJej-UQ12oJ4Emu-24" value="" style="endArrow=none;html=1;rounded=0;strokeWidth=4;entryX=0;entryY=1;entryDx=0;entryDy=0;" edge="1" parent="1">
          <mxGeometry width="50" height="50" relative="1" as="geometry">
            <mxPoint x="492" y="175" as="sourcePoint" />
            <mxPoint x="492" y="145" as="targetPoint" />
          </mxGeometry>
        </mxCell>
        <mxCell id="zfiHKtJej-UQ12oJ4Emu-26" value="" style="endArrow=none;html=1;rounded=0;strokeWidth=4;entryX=0;entryY=1;entryDx=0;entryDy=0;" edge="1" parent="1">
          <mxGeometry width="50" height="50" relative="1" as="geometry">
            <mxPoint x="650" y="175" as="sourcePoint" />
            <mxPoint x="650" y="145" as="targetPoint" />
          </mxGeometry>
        </mxCell>
        <mxCell id="zfiHKtJej-UQ12oJ4Emu-27" value="Optional Registers" style="text;strokeColor=none;fillColor=none;align=left;verticalAlign=middle;spacingLeft=4;spacingRight=4;overflow=hidden;points=[[0,0.5],[1,0.5]];portConstraint=eastwest;rotatable=0;whiteSpace=wrap;html=1;" vertex="1" parent="1">
          <mxGeometry x="400" y="60" width="110" height="20" as="geometry" />
        </mxCell>
        <mxCell id="zfiHKtJej-UQ12oJ4Emu-29" value="" style="endArrow=classic;html=1;rounded=0;strokeColor=#808080;entryX=0.273;entryY=0.357;entryDx=0;entryDy=0;entryPerimeter=0;exitX=0.055;exitY=1.01;exitDx=0;exitDy=0;exitPerimeter=0;" edge="1" parent="1" source="zfiHKtJej-UQ12oJ4Emu-27" target="zfiHKtJej-UQ12oJ4Emu-4">
          <mxGeometry width="50" height="50" relative="1" as="geometry">
            <mxPoint x="340" y="70" as="sourcePoint" />
            <mxPoint x="390" y="20" as="targetPoint" />
          </mxGeometry>
        </mxCell>
        <mxCell id="zfiHKtJej-UQ12oJ4Emu-30" value="" style="endArrow=classic;html=1;rounded=0;strokeColor=#808080;entryX=0.273;entryY=0.357;entryDx=0;entryDy=0;entryPerimeter=0;" edge="1" parent="1" source="zfiHKtJej-UQ12oJ4Emu-27">
          <mxGeometry width="50" height="50" relative="1" as="geometry">
            <mxPoint x="560" y="80" as="sourcePoint" />
            <mxPoint x="493" y="140" as="targetPoint" />
          </mxGeometry>
        </mxCell>
        <mxCell id="zfiHKtJej-UQ12oJ4Emu-31" value="" style="endArrow=classic;html=1;rounded=0;strokeColor=#808080;entryX=0.273;entryY=0.357;entryDx=0;entryDy=0;entryPerimeter=0;" edge="1" parent="1" source="zfiHKtJej-UQ12oJ4Emu-27">
          <mxGeometry width="50" height="50" relative="1" as="geometry">
            <mxPoint x="717" y="80" as="sourcePoint" />
            <mxPoint x="650" y="140" as="targetPoint" />
            <Array as="points">
              <mxPoint x="640" y="80" />
            </Array>
          </mxGeometry>
        </mxCell>
      </root>
    </mxGraphModel>
  </diagram>
</mxfile>
